{"title":"Cinderella 2015 HD-TS XVID AC3 HQ Hive-CM8","uid":11818358,"size":1572363677,"categoryP":"video","categoryS":"hd___movies","magnet":"?xt=urn:btih:34beb22bf1a4238196e07447c1bd435db38a8d25&amp;dn=Cinderella+2015+HD-TS+XVID+AC3+HQ+Hive-CM8&amp;tr=udp%3A%2F%2Ftracker.openbittorrent.com%3A80&amp;tr=udp%3A%2F%2Fopen.demonii.com%3A1337&amp;tr=udp%3A%2F%2Ftracker.coppersurfer.tk%3A6969&amp;tr=udp%3A%2F%2Fexodus.desync.com%3A6969","seeders":2,"leechers":4,"uploader":"makintos13","files":3,"time":1429172264,"description":"Cinderella 2015 HD-TS XVID AC3 HQ Hive-CM8\n\nScreen:\n &lt;a href=&quot;\nhttp://imgmak.com/zH&quot; rel=&quot;nofollow&quot; target=&quot;_NEW&quot;&gt;\nhttp://imgmak.com/zH&lt;/a&gt; &lt;a href=&quot;\nhttp://imgmak.com/zv&quot; rel=&quot;nofollow&quot; target=&quot;_NEW&quot;&gt;\nhttp://imgmak.com/zv&lt;/a&gt; &lt;a href=&quot;\nhttp://imgmak.com/zy&quot; rel=&quot;nofollow&quot; target=&quot;_NEW&quot;&gt;\nhttp://imgmak.com/zy&lt;/a&gt; &lt;a href=&quot;\nhttp://imgmak.com/z6&quot; rel=&quot;nofollow&quot; target=&quot;_NEW&quot;&gt;\nhttp://imgmak.com/z6&lt;/a&gt; &lt;a href=&quot;\nhttp://imgmak.com/z9&quot; rel=&quot;nofollow&quot; target=&quot;_NEW&quot;&gt;\nhttp://imgmak.com/z9&lt;/a&gt;\n\nThx Hive\n\nCM8 Doing It Right The First Time\n\nSources:\nVideo: Mandarin 720p HDCAM or TC\nAudio: Sweet Line (thx P2PLoV3)\n\nNotes:\nThat great 720p Mandarin Video is already around since 3 weeks, was waiting for a Line to do a nice version with it, finally got it\nThe Video is way too bright and the colours are too strong, otherwise its perfect\nThere was a chinese watermark hardcoded at runtime 20mins and 50mins bottom right corner, for cpl seconds each, nothing to worry\nBlurring looked odd so i left it as it was\n\nEncode:\nfor the Video, i lowered brightness and contrast to normal levels, removed a bit saturation, and added sharpness\nits still very bright but i cant lower more or darker scenes wouldnt be seen good\nWasnt happy with the perspective on the left side, fixed that\n\nThe Line Audio i got was already more than perfect, rarely seen such quality, its def a 10/10, no cleaning was needed\nAudio is lipsync as usual, wasnt much to do, both recordings are direct so they fitted immediatly\n\nAlso got Line for the frozen fever short movie which i will release seperately, cant be mixed with that movie\n\ngot very very nice, and will do me till bluray\nenjoy\n\nVideo: 720x340 @bitrate 1700 2pass\nAudio: English Line Stereo 2.0\nSample: yes included\n\nPS:\nstill need good audio for the remaining good videosline if you have a good mic audio or even line stereo for the following movies,dont hesitate to contact me line Movies are: CHAPPIE,JUPITER ASCENDING and LAZARUS Effectline thxlineline\n\nwww.imdb.com/title/tt1661199/\n\nGeneral\nComplete name: Cinderella.2015.HD-TS.XVID.AC3.HQ.Hive-CM8.avi\nFormat: AVI\nFormat/Info: Audio Video Interleave\nFile size: 1.44 GiB\nDuration: 1h 45mn\nOverall bit rate: 1 961 Kbps\nWriting application: Nandub v1.0rc2\nWriting library: Nandub build 1853/release\n\nVideo\nID: 0\nFormat: MPEG-4 Visual\nFormat profile: Advanced Simple@L5\nFormat settings, BVOP: 2\nFormat settings, QPel: Yes\nFormat settings, GMC: No warppoints\nFormat settings, Matrix: Default (H.263)\nMuxing mode: Packed bitstream\nCodec ID: XVID\nCodec ID/Hint: XviD\nDuration: 1h 45mn\nBit rate: 1 696 Kbps\nWidth: 720 pixels\nHeight: 340 pixels\nDisplay aspect ratio: 2.118\nFrame rate: 23.976 fps\nColor space: YUV\nChroma subsampling: 4:2:0\nBit depth: 8 bits\nScan type: Progressive\nCompression mode: Lossy\nBits/(Pixel*Frame): 0.289\nStream size: 1.25 GiB (86%)\nWriting library: XviD 1.2.1 (UTC 2008-12-04)\n\nAudio\nID: 1\nFormat: AC-3\nFormat/Info: Audio Coding 3\nMode extension: CM (complete main)\nFormat settings, Endianness: Big\nCodec ID: 2000\nDuration: 1h 45mn\nBit rate mode: Constant\nBit rate: 256 Kbps\nChannel(s): 2 channels\nChannel positions: Front: L R\nSampling rate: 48.0 KHz\nBit depth: 16 bits\nCompression mode: Lossy\nDelay relative to video: 26ms\nStream size: 193 MiB (13%)\nAlignment: Split accross interleaves\nInterleave, duration: 42 ms (1.00 video frame)\nInterleave, preload duration: 500 ms","torrent":{"xt":"urn:btih:34beb22bf1a4238196e07447c1bd435db38a8d25","amp;dn":"Cinderella+2015+HD-TS+XVID+AC3+HQ+Hive-CM8","amp;tr":["udp%3A%2F%2Ftracker.openbittorrent.com%3A80","udp%3A%2F%2Fopen.demonii.com%3A1337","udp%3A%2F%2Ftracker.coppersurfer.tk%3A6969","udp%3A%2F%2Fexodus.desync.com%3A6969"],"infoHash":"34beb22bf1a4238196e07447c1bd435db38a8d25","infoHashBuffer":{"type":"Buffer","data":[52,190,178,43,241,164,35,129,150,224,116,71,193,189,67,93,179,138,141,37]},"announce":[],"urlList":[]}}